
<svg xmlns="http://www.w3.org/2000/svg" viewBox="0 0 1574.26 334.06"><defs><style>.cls-1,.cls-2{fill:#efe0b0;}.cls-2{stroke:#efe0b0;stroke-linecap:round;stroke-linejoin:round;stroke-width:0;}.cls-3{fill:#e5cc7c;}</style></defs><g id="Capa_2" data-name="Capa 2"><g id="Capa_1-2" data-name="Capa 1"><path class="cls-1" d="M89.69,30.28l123,76.11v-.84a5.67,5.67,0,0,1,5.67-5.67h10.59a5.67,5.67,0,0,1,5.67,5.67V120l8.45,5.23V30.28ZM234.6,66a5.67,5.67,0,0,1-5.67,5.67H218.34A5.67,5.67,0,0,1,212.67,66V51.37a5.67,5.67,0,0,1,5.67-5.67h10.59a5.67,5.67,0,0,1,5.67,5.67Z"/><path class="cls-2" d="M234.6,214.1v14.42a5.67,5.67,0,0,1-5.67,5.67H218.34a5.67,5.67,0,0,1-5.67-5.67v-.84l-123,76.11H243.05V208.87Zm0,68.59a5.67,5.67,0,0,1-5.67,5.67H218.34a5.67,5.67,0,0,1-5.67-5.67V268.07a5.67,5.67,0,0,1,5.67-5.67h10.59a5.67,5.67,0,0,1,5.67,5.67Z"/><path class="cls-3" d="M450.6,131.51q-.45-29.07-22.61-44.78T382.61,71q-11,0-17.84,6A19.81,19.81,0,0,0,358,92.6a17.06,17.06,0,0,0,4.33,12q4.34,4.69,16.66,11.45,43.62,24.22,57.63,34.8T456,173.36q5.43,11.88,5.43,27.6,0,24.07-12.77,40.08T414,264.32q-21.94,7.26-39.71,7.26-27.62,0-51.69-18.64l-26.43,20.7v-83h7.49v.88q0,20.41,7.71,34.43t24.08,25.11q16.36,11.09,33.4,11.09,15.42,0,24.89-6.39t9.47-16.67a18.45,18.45,0,0,0-3.89-11.23,40.79,40.79,0,0,0-10.5-9.54q-6.6-4.34-30.54-16.81Q303,172.46,303,131.8q0-29.36,21.59-49t53.88-19.6a110,110,0,0,1,23.06,2.65q12.33,2.64,29.21,13.21l27-20.41v72.83Z"/><path class="cls-3" d="M619.13,203.9H540.87V230q0,12.48,1.47,17.77a16.31,16.31,0,0,0,5.72,8.66,16.49,16.49,0,0,0,10.57,3.38q13.22,0,27.68-8.81a90.17,90.17,0,0,0,25.62-23.94l4.7,5.14q-28.33,37.31-68.57,37.3-33.33,0-55.57-17.84t-22.25-44.12q0-28.2,22.69-47.21t56.75-19q26.57,0,45.88,16.81T619.13,203.9Zm-50.51-6v-34.8q0-16-13.22-16-14.53,0-14.53,16v34.8Z"/><path class="cls-3" d="M1123.14,230.91q-17,21.74-35.24,31.2t-45.22,9.47q-47.15,0-77.31-29.21T935.2,166.9q0-47.43,29.58-76t77.16-28.56q30.69,0,49.92,15.86L1122,62.65v81.49h-6.9q0-21.43-10.86-38.18t-25.62-25.55q-14.76-8.8-29.59-8.81-7.2,0-11.89,3.45a14.62,14.62,0,0,0-5.88,9q-1.17,5.58-1.17,17v129.8q0,16.89,5.28,24.3t17.77,7.42q35.24,0,63.14-36.42Z"/><path class="cls-3" d="M1233.23,265.56H1127.07v-6h20V149.42h-20v-5.87h49.63a173,173,0,0,0,37-4v120h19.53ZM1185.81,65q12.33,0,19.38,6.09t7,16.81q0,10.88-12.11,19.38t-28.26,8.52q-12,0-19.38-5.88a18.77,18.77,0,0,1-7.35-15.41q0-12,12-20.78T1185.81,65Z"/><path class="cls-3" d="M1424.52,265.56h-95.44v-6h10.28v-86q0-15.27-9-15.27-7.19,0-16.59,8.37v92.94h10.28v6h-95.73v-6H1247V149.42h-18.64v-5.87h55.94a120.55,120.55,0,0,0,29.51-4v19.83q24.68-18.06,49.63-18.06,17.32,0,30,8.66t12.7,30.39v79.14h18.35Z"/><path class="cls-3" d="M1574.26,203.9H1496V230q0,12.48,1.47,17.77a16.31,16.31,0,0,0,5.72,8.66,16.49,16.49,0,0,0,10.57,3.38q13.21,0,27.68-8.81a90.17,90.17,0,0,0,25.62-23.94l4.7,5.14q-28.34,37.31-68.57,37.3-33.33,0-55.57-17.84t-22.25-44.12q0-28.2,22.69-47.21t56.75-19q26.57,0,45.88,16.81T1574.26,203.9Zm-50.51-6v-34.8q0-16-13.22-16-14.54,0-14.53,16v34.8Z"/><path class="cls-3" d="M697.17,180.94H665.65V153h31.52V98.18H665.65V63.07h98.44q31.06,0,50,3.81t36.3,16.88q17.33,13.08,27.79,35t10.45,48.7a117.37,117.37,0,0,1-7.32,41.31q-7.32,19.63-18.14,31.66a80.57,80.57,0,0,1-25.92,19.12q-15.09,7.11-27.71,9.19t-39.07,2.09H665.65v-35.1h31.52Zm53.93,0v54.82h13q23.61,0,37.42-6.13t22.18-21.58q8.37-15.47,8.37-40.41,0-23.74-8.44-40.33t-22.86-22.86q-14.41-6.27-36.67-6.27h-13V153h38.54v27.94Z"/><path class="cls-3" d="M268.88,158.82l-25.83-16-102-63.11L61.18,30.28l-30.78-19v.59a5.67,5.67,0,0,1-5.67,5.67H14.13a5.66,5.66,0,0,1-5.66-5.67V0A9.58,9.58,0,0,0,0,9.58V324.49a9.58,9.58,0,0,0,8.47,9.57V322.24a5.66,5.66,0,0,1,5.66-5.67h10.6a5.67,5.67,0,0,1,5.67,5.67v.6l30.77-19,79.91-49.45,102-63.11,25.83-16A9.68,9.68,0,0,0,268.88,158.82ZM30.4,282.69a5.67,5.67,0,0,1-5.67,5.67H14.13a5.67,5.67,0,0,1-5.67-5.67V268.07a5.67,5.67,0,0,1,5.67-5.67h10.6a5.67,5.67,0,0,1,5.67,5.67Zm0-54.17a5.67,5.67,0,0,1-5.67,5.67H14.13a5.67,5.67,0,0,1-5.67-5.67V213.89a5.67,5.67,0,0,1,5.67-5.67h10.6a5.67,5.67,0,0,1,5.67,5.67Zm0-54.18A5.67,5.67,0,0,1,24.73,180H14.13a5.67,5.67,0,0,1-5.67-5.67V159.72a5.67,5.67,0,0,1,5.67-5.67h10.6a5.67,5.67,0,0,1,5.67,5.67Zm0-54.17a5.67,5.67,0,0,1-5.67,5.67H14.13a5.67,5.67,0,0,1-5.67-5.67V105.54a5.67,5.67,0,0,1,5.67-5.67h10.6a5.67,5.67,0,0,1,5.67,5.67ZM30.4,66a5.67,5.67,0,0,1-5.67,5.67H14.13A5.67,5.67,0,0,1,8.46,66V51.37a5.67,5.67,0,0,1,5.67-5.67h10.6a5.67,5.67,0,0,1,5.67,5.67Z"/></g></g></svg>