<svg xmlns="http://www.w3.org/2000/svg" viewBox="0 0 103.52 25.29"><defs><style>.cls-1{fill:#efe0b0;}</style></defs><g id="Capa_2" data-name="Capa 2"><g id="Capa_1-2" data-name="Capa 1"><path class="cls-1" d="M83.16,13.27l2,1.21,7.72,4.78,6,3.74,2.33,1.45V24.4a.43.43,0,0,1,.43-.43h.8a.43.43,0,0,1,.43.43v.89a.73.73,0,0,0,.64-.72V.73a.73.73,0,0,0-.64-.73V.9a.42.42,0,0,1-.43.42h-.8a.42.42,0,0,1-.43-.42V.85L98.89,2.29,92.84,6l-7.72,4.77-2,1.22A.73.73,0,0,0,83.16,13.27Zm18.06,7.36a.76.76,0,0,1,.76-.76h.14a.76.76,0,0,1,.76.76v.45a.76.76,0,0,1-.76.75H102a.76.76,0,0,1-.76-.75Zm0-4.1a.76.76,0,0,1,.76-.76h.14a.76.76,0,0,1,.76.76V17a.76.76,0,0,1-.76.76H102a.76.76,0,0,1-.76-.76Zm0-4.11a.76.76,0,0,1,.76-.76h.14a.76.76,0,0,1,.76.76v.45a.76.76,0,0,1-.76.76H102a.76.76,0,0,1-.76-.76Zm0-4.1a.76.76,0,0,1,.76-.76h.14a.76.76,0,0,1,.76.76v.45a.76.76,0,0,1-.76.76H102a.76.76,0,0,1-.76-.76Zm0-4.1a.76.76,0,0,1,.76-.76h.14a.76.76,0,0,1,.76.76v.45a.76.76,0,0,1-.76.76H102a.76.76,0,0,1-.76-.76Z"/><path class="cls-1" d="M41.75,13.27l2,1.21,7.72,4.78,6,3.74,2.33,1.45V24.4a.43.43,0,0,1,.43-.43H61a.43.43,0,0,1,.43.43v.89a.73.73,0,0,0,.64-.72V.73A.73.73,0,0,0,61.47,0V.9a.42.42,0,0,1-.43.42h-.8A.42.42,0,0,1,59.81.9V.85L57.48,2.29,51.43,6l-7.72,4.77-2,1.22A.73.73,0,0,0,41.75,13.27Zm18.06,7.36a.76.76,0,0,1,.76-.76h.14a.76.76,0,0,1,.76.76v.45a.76.76,0,0,1-.76.75h-.14a.76.76,0,0,1-.76-.75Zm0-4.1a.76.76,0,0,1,.76-.76h.14a.76.76,0,0,1,.76.76V17a.76.76,0,0,1-.76.76h-.14a.76.76,0,0,1-.76-.76Zm0-4.11a.76.76,0,0,1,.76-.76h.14a.76.76,0,0,1,.76.76v.45a.76.76,0,0,1-.76.76h-.14a.76.76,0,0,1-.76-.76Zm0-4.1a.76.76,0,0,1,.76-.76h.14a.76.76,0,0,1,.76.76v.45a.76.76,0,0,1-.76.76h-.14a.76.76,0,0,1-.76-.76Zm0-4.1a.76.76,0,0,1,.76-.76h.14a.76.76,0,0,1,.76.76v.45a.76.76,0,0,1-.76.76h-.14a.76.76,0,0,1-.76-.76Z"/><path class="cls-1" d="M.34,13.27l2,1.21L10,19.26,16.07,23l2.33,1.45V24.4a.43.43,0,0,1,.43-.43h.8a.43.43,0,0,1,.43.43v.89a.72.72,0,0,0,.64-.72V.73A.72.72,0,0,0,20.06,0V.9a.42.42,0,0,1-.43.42h-.8A.42.42,0,0,1,18.4.9V.85L16.07,2.29,10,6,2.3,10.81.34,12A.74.74,0,0,0,.34,13.27ZM18.4,20.63a.76.76,0,0,1,.76-.76h.14a.76.76,0,0,1,.76.76v.45a.76.76,0,0,1-.76.75h-.14a.76.76,0,0,1-.76-.75Zm0-4.1a.76.76,0,0,1,.76-.76h.14a.76.76,0,0,1,.76.76V17a.76.76,0,0,1-.76.76h-.14A.76.76,0,0,1,18.4,17Zm0-4.11a.76.76,0,0,1,.76-.76h.14a.76.76,0,0,1,.76.76v.45a.76.76,0,0,1-.76.76h-.14a.76.76,0,0,1-.76-.76Zm0-4.1a.76.76,0,0,1,.76-.76h.14a.76.76,0,0,1,.76.76v.45a.76.76,0,0,1-.76.76h-.14a.76.76,0,0,1-.76-.76Zm0-4.1a.76.76,0,0,1,.76-.76h.14a.76.76,0,0,1,.76.76v.45a.76.76,0,0,1-.76.76h-.14a.76.76,0,0,1-.76-.76Z"/></g></g></svg>