<svg version="1.2" xmlns="http://www.w3.org/2000/svg" viewBox="0 0 26 26" width="26" height="26">
	<title>recurso de viñeta-svg</title>
	<style>
		.s0 { fill: #efe0b0 } 
	</style>
	<g id="Capa_2">
		<g id="Capa_1-2">
			<path id="Layer" fill-rule="evenodd" class="s0" d="m82.9 13q-0.1-0.2-0.1-0.4 0-0.2 0.1-0.3 0-0.2 0.2-0.3l2-1.2 7.7-4.8 6.1-3.7 2.3-1.4q0 0.1 0 0.2 0.1 0 0.1 0.1 0.1 0.1 0.2 0.1 0.1 0 0.1 0h0.8q0.1 0 0.2 0 0.1 0 0.1-0.1 0.1-0.1 0.1-0.1 0.1-0.1 0.1-0.2v-0.9q0.1 0 0.2 0.1 0.1 0 0.2 0.1 0.1 0.1 0.2 0.3 0 0.1 0 0.2v23.9q0 0.1 0 0.2-0.1 0.2-0.2 0.3-0.1 0-0.2 0.1-0.1 0.1-0.2 0.1v-0.9q0-0.1-0.1-0.2 0 0-0.1-0.1 0-0.1-0.1-0.1-0.1 0-0.2 0h-0.8q0 0-0.1 0-0.1 0-0.2 0.1 0 0.1-0.1 0.1 0 0.1 0 0.2v0.1l-2.3-1.5-6-3.7-7.7-4.8-2-1.2q-0.2-0.1-0.3-0.3zm18.3 8.1q0 0.1 0.1 0.3 0.1 0.1 0.2 0.2 0.1 0.1 0.2 0.2 0.2 0 0.3 0h0.1q0.2 0 0.3 0 0.1-0.1 0.3-0.2 0.1-0.1 0.1-0.2 0.1-0.2 0.1-0.3v-0.5q0-0.1-0.1-0.3 0-0.1-0.1-0.2-0.1-0.1-0.3-0.2-0.1 0-0.3 0h-0.1q-0.2 0-0.3 0-0.2 0.1-0.3 0.2-0.1 0.1-0.1 0.2-0.1 0.2-0.1 0.3zm0-4q0 0.1 0.1 0.2 0 0.2 0.1 0.3 0.1 0.1 0.3 0.2 0.1 0 0.3 0h0.1q0.2 0 0.3 0 0.1-0.1 0.2-0.2 0.1-0.1 0.2-0.3 0.1-0.1 0.1-0.2v-0.5q0-0.2-0.1-0.3-0.1-0.2-0.2-0.3-0.1-0.1-0.2-0.1-0.1-0.1-0.3-0.1h-0.1q-0.2 0-0.3 0.1-0.2 0-0.3 0.1-0.1 0.1-0.1 0.3-0.1 0.1-0.1 0.3zm0-4.2q0 0.2 0.1 0.3 0 0.2 0.1 0.3 0.1 0.1 0.3 0.2 0.1 0 0.3 0h0.1q0.1 0 0.3 0 0.1-0.1 0.2-0.2 0.1-0.1 0.2-0.3 0-0.1 0-0.2v-0.5q0-0.2 0-0.3-0.1-0.1-0.2-0.2-0.1-0.1-0.2-0.2-0.2-0.1-0.3-0.1h-0.2q-0.1 0-0.3 0.1-0.1 0.1-0.2 0.2-0.1 0.1-0.2 0.2 0 0.1 0 0.3zm0-4.1q0 0.2 0 0.3 0.1 0.1 0.2 0.2 0.1 0.1 0.2 0.2 0.2 0.1 0.3 0.1h0.2q0.1 0 0.3-0.1 0.1-0.1 0.2-0.2 0.1-0.1 0.2-0.2 0-0.1 0-0.3v-0.4q0-0.2 0-0.3-0.1-0.2-0.2-0.3-0.1-0.1-0.2-0.2-0.2 0-0.3 0h-0.2q-0.1 0-0.3 0-0.1 0.1-0.2 0.2-0.1 0.1-0.2 0.3 0 0.1 0 0.3zm0-4.1q0 0.1 0 0.2 0.1 0.2 0.2 0.3 0.1 0.1 0.2 0.2 0.2 0 0.3 0h0.1q0.2 0 0.3 0 0.2-0.1 0.3-0.2 0.1-0.1 0.1-0.3 0.1-0.1 0.1-0.2v-0.5q0-0.2-0.1-0.3 0-0.1-0.1-0.2-0.1-0.1-0.3-0.2-0.1-0.1-0.3-0.1h-0.1q-0.2 0-0.3 0.1-0.1 0.1-0.2 0.2-0.1 0.1-0.2 0.2-0.1 0.1-0.1 0.3z"/>
			<path id="Layer" fill-rule="evenodd" class="s0" d="m41.5 13q-0.1-0.2-0.1-0.4-0.1-0.2 0-0.3 0.1-0.2 0.3-0.3l2-1.2 7.7-4.8 6.1-3.7 2.3-1.4q0 0.1 0 0.2 0.1 0 0.1 0.1 0.1 0.1 0.2 0.1 0.1 0 0.1 0h0.8q0.1 0 0.2 0 0.1 0 0.1-0.1 0.1-0.1 0.1-0.1 0.1-0.1 0.1-0.2v-0.9q0.1 0 0.2 0.1 0.1 0.1 0.2 0.2 0.1 0.1 0.1 0.2 0.1 0.1 0.1 0.2v23.9q0 0.1-0.1 0.2 0 0.2-0.1 0.3-0.1 0-0.2 0.1-0.1 0.1-0.3 0.1v-0.9q0-0.1 0-0.2 0 0-0.1-0.1-0.1-0.1-0.1-0.1-0.1 0-0.2 0h-0.8q-0.1 0-0.1 0-0.1 0-0.2 0.1 0 0.1-0.1 0.1 0 0.1 0 0.2v0.1l-2.3-1.5-6-3.7-7.8-4.8-1.9-1.2q-0.2-0.1-0.3-0.3zm18.3 8.1q0 0.1 0.1 0.3 0 0.1 0.1 0.2 0.1 0.1 0.3 0.2 0.1 0 0.3 0h0.1q0.2 0 0.3 0 0.1-0.1 0.2-0.2 0.2-0.1 0.2-0.2 0.1-0.2 0.1-0.3v-0.5q0-0.1-0.1-0.3 0-0.1-0.2-0.2-0.1-0.1-0.2-0.2-0.1 0-0.3 0h-0.1q-0.2 0-0.3 0-0.2 0.1-0.3 0.2-0.1 0.1-0.1 0.2-0.1 0.2-0.1 0.3zm0-4q0 0.1 0.1 0.2 0 0.2 0.1 0.3 0.1 0.1 0.3 0.2 0.1 0 0.3 0h0.1q0.2 0 0.3 0 0.1-0.1 0.2-0.2 0.2-0.1 0.2-0.3 0.1-0.1 0.1-0.2v-0.5q0-0.2-0.1-0.3 0-0.2-0.2-0.3-0.1-0.1-0.2-0.1-0.1-0.1-0.3-0.1h-0.1q-0.2 0-0.3 0.1-0.2 0-0.3 0.1-0.1 0.1-0.1 0.3-0.1 0.1-0.1 0.3zm0-4.2q0 0.2 0.1 0.3 0 0.2 0.1 0.3 0.1 0.1 0.3 0.2 0.1 0 0.3 0h0.1q0.2 0 0.3 0 0.1-0.1 0.2-0.2 0.2-0.1 0.2-0.3 0.1-0.1 0.1-0.2v-0.5q0-0.2-0.1-0.3 0-0.1-0.2-0.2-0.1-0.1-0.2-0.2-0.1-0.1-0.3-0.1h-0.1q-0.2 0-0.3 0.1-0.2 0.1-0.3 0.2-0.1 0.1-0.1 0.2-0.1 0.1-0.1 0.3zm0-4.1q0 0.2 0.1 0.3 0 0.1 0.1 0.2 0.1 0.1 0.3 0.2 0.1 0.1 0.3 0.1h0.1q0.2 0 0.3-0.1 0.1-0.1 0.2-0.2 0.2-0.1 0.2-0.2 0.1-0.1 0.1-0.3v-0.4q0-0.2-0.1-0.3 0-0.2-0.2-0.3-0.1-0.1-0.2-0.2-0.1 0-0.3 0h-0.1q-0.2 0-0.3 0-0.2 0.1-0.3 0.2-0.1 0.1-0.1 0.3-0.1 0.1-0.1 0.3zm0-4.1q0 0.1 0.1 0.2 0 0.2 0.1 0.3 0.1 0.1 0.3 0.2 0.1 0 0.3 0h0.1q0.2 0 0.3 0 0.1-0.1 0.2-0.2 0.2-0.1 0.2-0.3 0.1-0.1 0.1-0.2v-0.5q0-0.2-0.1-0.3 0-0.1-0.2-0.2-0.1-0.1-0.2-0.2-0.1-0.1-0.3-0.1h-0.1q-0.2 0-0.3 0.1-0.2 0.1-0.3 0.2-0.1 0.1-0.1 0.2-0.1 0.1-0.1 0.3z"/>
			<path id="Layer" fill-rule="evenodd" class="s0" d="m0.1 13q-0.1-0.2-0.1-0.4 0-0.2 0.1-0.3 0.1-0.2 0.2-0.3l2-1.2 7.7-4.8 6.1-3.7 2.3-1.4q0 0.1 0 0.2 0.1 0 0.1 0.1 0.1 0.1 0.2 0.1 0 0 0.1 0h0.8q0.1 0 0.2 0 0.1 0 0.1-0.1 0.1-0.1 0.1-0.1 0.1-0.1 0.1-0.2v-0.9q0.1 0 0.2 0.1 0.1 0 0.2 0.1 0.1 0.1 0.2 0.3 0 0.1 0 0.2v23.9q0 0.1 0 0.2-0.1 0.2-0.2 0.3-0.1 0.1-0.2 0.1-0.1 0.1-0.2 0.1v-0.9q0-0.1-0.1-0.2 0 0-0.1-0.1 0-0.1-0.1-0.1-0.1 0-0.2 0h-0.8q-0.1 0-0.1 0-0.1 0-0.2 0.1 0 0.1-0.1 0.1 0 0.1 0 0.2v0.1l-2.3-1.5-6.1-3.7-7.7-4.8-2-1.2q-0.1-0.1-0.2-0.3zm18.3 8.1q0 0.1 0.1 0.3 0 0.1 0.1 0.2 0.1 0.1 0.3 0.2 0.1 0 0.3 0h0.1q0.1 0 0.3 0 0.1-0.1 0.2-0.2 0.1-0.1 0.2-0.2 0.1-0.2 0.1-0.3v-0.5q0-0.1-0.1-0.3-0.1-0.1-0.2-0.2-0.1-0.1-0.2-0.2-0.1 0-0.3 0h-0.1q-0.2 0-0.3 0-0.2 0.1-0.3 0.2-0.1 0.1-0.1 0.2-0.1 0.2-0.1 0.3zm0-4q0 0.1 0.1 0.2 0 0.2 0.1 0.3 0.1 0.1 0.3 0.2 0.1 0 0.3 0h0.1q0.2 0 0.3 0 0.1-0.1 0.2-0.2 0.1-0.1 0.2-0.3 0.1-0.1 0.1-0.2v-0.5q0-0.2-0.1-0.3-0.1-0.2-0.2-0.3-0.1-0.1-0.2-0.1-0.1-0.1-0.3-0.1h-0.1q-0.2 0-0.3 0.1-0.2 0-0.3 0.1-0.1 0.1-0.1 0.3-0.1 0.1-0.1 0.3zm0-4.2q0 0.2 0.1 0.3 0 0.2 0.1 0.3 0.1 0.1 0.3 0.2 0.1 0 0.3 0h0.1q0.2 0 0.3 0 0.1-0.1 0.2-0.2 0.1-0.1 0.2-0.3 0.1-0.1 0.1-0.2v-0.5q0-0.2-0.1-0.3-0.1-0.1-0.2-0.2-0.1-0.1-0.2-0.2-0.1-0.1-0.3-0.1h-0.1q-0.2 0-0.3 0.1-0.2 0.1-0.3 0.2-0.1 0.1-0.1 0.2-0.1 0.1-0.1 0.3zm0-4.1q0 0.2 0.1 0.3 0 0.1 0.1 0.2 0.1 0.1 0.3 0.2 0.1 0.1 0.3 0.1h0.1q0.2 0 0.3-0.1 0.1-0.1 0.2-0.2 0.1-0.1 0.2-0.2 0.1-0.1 0.1-0.3v-0.4q0-0.2-0.1-0.3-0.1-0.2-0.2-0.3-0.1-0.1-0.2-0.2-0.1 0-0.3 0h-0.1q-0.2 0-0.3 0-0.2 0.1-0.3 0.2-0.1 0.1-0.1 0.3-0.1 0.1-0.1 0.3zm0-4.1q0 0.1 0.1 0.2 0 0.2 0.1 0.3 0.1 0.1 0.3 0.2 0.1 0 0.3 0h0.1q0.2 0 0.3 0 0.1-0.1 0.2-0.2 0.1-0.1 0.2-0.3 0.1-0.1 0.1-0.2v-0.5q0-0.2-0.1-0.3-0.1-0.1-0.2-0.2-0.1-0.1-0.2-0.2-0.1-0.1-0.3-0.1h-0.1q-0.2 0-0.3 0.1-0.2 0.1-0.3 0.2-0.1 0.1-0.1 0.2-0.1 0.1-0.1 0.3z"/>
		</g>
	</g>
</svg>